{
	"patcher" : 	{
		"fileversion" : 1,
		"appversion" : 		{
			"major" : 8,
			"minor" : 1,
			"revision" : 4,
			"architecture" : "x64",
			"modernui" : 1
		}
,
		"classnamespace" : "box",
		"rect" : [ 473.0, 165.0, 753.0, 684.0 ],
		"bglocked" : 0,
		"openinpresentation" : 1,
		"default_fontsize" : 12.0,
		"default_fontface" : 0,
		"default_fontname" : "Courier",
		"gridonopen" : 2,
		"gridsize" : [ 15.0, 5.0 ],
		"gridsnaponopen" : 2,
		"objectsnaponopen" : 0,
		"statusbarvisible" : 2,
		"toolbarvisible" : 1,
		"lefttoolbarpinned" : 0,
		"toptoolbarpinned" : 0,
		"righttoolbarpinned" : 0,
		"bottomtoolbarpinned" : 0,
		"toolbars_unpinned_last_save" : 0,
		"tallnewobj" : 0,
		"boxanimatetime" : 200,
		"enablehscroll" : 1,
		"enablevscroll" : 1,
		"devicewidth" : 0.0,
		"description" : "",
		"digest" : "",
		"tags" : "",
		"style" : "cassiel",
		"subpatcher_template" : "cassiel",
		"assistshowspatchername" : 0,
		"boxes" : [ 			{
				"box" : 				{
					"comment" : "",
					"id" : "obj-50",
					"index" : 0,
					"maxclass" : "outlet",
					"numinlets" : 1,
					"numoutlets" : 0,
					"patching_rect" : [ 120.0, 460.0, 30.0, 30.0 ]
				}

			}
, 			{
				"box" : 				{
					"id" : "obj-49",
					"maxclass" : "number",
					"numinlets" : 1,
					"numoutlets" : 2,
					"outlettype" : [ "", "bang" ],
					"parameter_enable" : 0,
					"patching_rect" : [ 120.0, 425.0, 50.0, 20.0 ]
				}

			}
, 			{
				"box" : 				{
					"id" : "obj-48",
					"maxclass" : "message",
					"numinlets" : 2,
					"numoutlets" : 1,
					"outlettype" : [ "" ],
					"patching_rect" : [ 120.0, 390.0, 29.5, 20.0 ],
					"text" : "$1"
				}

			}
, 			{
				"box" : 				{
					"id" : "obj-44",
					"maxclass" : "newobj",
					"numinlets" : 8,
					"numoutlets" : 1,
					"outlettype" : [ "list" ],
					"patching_rect" : [ 120.0, 355.0, 92.5, 20.0 ],
					"text" : "funnel 8"
				}

			}
, 			{
				"box" : 				{
					"bgcolor" : [ 0.164705882352941, 0.176470588235294, 0.172549019607843, 0.0 ],
					"blinkcolor" : [ 0.996078431372549, 0.317647058823529, 0.0, 1.0 ],
					"id" : "obj-40",
					"maxclass" : "button",
					"numinlets" : 1,
					"numoutlets" : 1,
					"outlettype" : [ "bang" ],
					"outlinecolor" : [ 0.996078431372549, 0.996078431372549, 0.996078431372549, 1.0 ],
					"parameter_enable" : 0,
					"patching_rect" : [ 405.0, 330.0, 45.0, 45.0 ],
					"presentation" : 1,
					"presentation_rect" : [ 240.0, 425.0, 45.0, 45.0 ]
				}

			}
, 			{
				"box" : 				{
					"bgcolor" : [ 0.164705882352941, 0.176470588235294, 0.172549019607843, 0.0 ],
					"blinkcolor" : [ 0.996078431372549, 0.317647058823529, 0.0, 1.0 ],
					"id" : "obj-41",
					"maxclass" : "button",
					"numinlets" : 1,
					"numoutlets" : 1,
					"outlettype" : [ "bang" ],
					"outlinecolor" : [ 0.996078431372549, 0.996078431372549, 0.996078431372549, 1.0 ],
					"parameter_enable" : 0,
					"patching_rect" : [ 405.0, 280.0, 45.0, 45.0 ],
					"presentation" : 1,
					"presentation_rect" : [ 240.0, 375.0, 45.0, 45.0 ]
				}

			}
, 			{
				"box" : 				{
					"bgcolor" : [ 0.164705882352941, 0.176470588235294, 0.172549019607843, 0.0 ],
					"blinkcolor" : [ 0.996078431372549, 0.317647058823529, 0.0, 1.0 ],
					"id" : "obj-42",
					"maxclass" : "button",
					"numinlets" : 1,
					"numoutlets" : 1,
					"outlettype" : [ "bang" ],
					"outlinecolor" : [ 0.996078431372549, 0.996078431372549, 0.996078431372549, 1.0 ],
					"parameter_enable" : 0,
					"patching_rect" : [ 405.0, 230.0, 45.0, 45.0 ],
					"presentation" : 1,
					"presentation_rect" : [ 240.0, 325.0, 45.0, 45.0 ]
				}

			}
, 			{
				"box" : 				{
					"bgcolor" : [ 0.164705882352941, 0.176470588235294, 0.172549019607843, 0.0 ],
					"blinkcolor" : [ 0.996078431372549, 0.317647058823529, 0.0, 1.0 ],
					"id" : "obj-43",
					"maxclass" : "button",
					"numinlets" : 1,
					"numoutlets" : 1,
					"outlettype" : [ "bang" ],
					"outlinecolor" : [ 0.996078431372549, 0.996078431372549, 0.996078431372549, 1.0 ],
					"parameter_enable" : 0,
					"patching_rect" : [ 405.0, 180.0, 45.0, 45.0 ],
					"presentation" : 1,
					"presentation_rect" : [ 240.0, 275.0, 45.0, 45.0 ]
				}

			}
, 			{
				"box" : 				{
					"bgcolor" : [ 0.164705882352941, 0.176470588235294, 0.172549019607843, 0.0 ],
					"blinkcolor" : [ 0.996078431372549, 0.317647058823529, 0.0, 1.0 ],
					"id" : "obj-38",
					"maxclass" : "button",
					"numinlets" : 1,
					"numoutlets" : 1,
					"outlettype" : [ "bang" ],
					"outlinecolor" : [ 0.996078431372549, 0.996078431372549, 0.996078431372549, 1.0 ],
					"parameter_enable" : 0,
					"patching_rect" : [ 240.0, 65.0, 45.0, 45.0 ],
					"presentation" : 1,
					"presentation_rect" : [ 240.0, 225.0, 45.0, 45.0 ]
				}

			}
, 			{
				"box" : 				{
					"bgcolor" : [ 0.164705882352941, 0.176470588235294, 0.172549019607843, 0.0 ],
					"blinkcolor" : [ 0.996078431372549, 0.317647058823529, 0.0, 1.0 ],
					"id" : "obj-39",
					"maxclass" : "button",
					"numinlets" : 1,
					"numoutlets" : 1,
					"outlettype" : [ "bang" ],
					"outlinecolor" : [ 0.996078431372549, 0.996078431372549, 0.996078431372549, 1.0 ],
					"parameter_enable" : 0,
					"patching_rect" : [ 165.0, 65.0, 45.0, 45.0 ],
					"presentation" : 1,
					"presentation_rect" : [ 240.0, 175.0, 45.0, 45.0 ]
				}

			}
, 			{
				"box" : 				{
					"bgcolor" : [ 0.164705882352941, 0.176470588235294, 0.172549019607843, 0.0 ],
					"blinkcolor" : [ 0.996078431372549, 0.317647058823529, 0.0, 1.0 ],
					"id" : "obj-37",
					"maxclass" : "button",
					"numinlets" : 1,
					"numoutlets" : 1,
					"outlettype" : [ "bang" ],
					"outlinecolor" : [ 0.996078431372549, 0.996078431372549, 0.996078431372549, 1.0 ],
					"parameter_enable" : 0,
					"patching_rect" : [ 105.0, 65.0, 45.0, 45.0 ],
					"presentation" : 1,
					"presentation_rect" : [ 240.0, 125.0, 45.0, 45.0 ]
				}

			}
, 			{
				"box" : 				{
					"bgcolor" : [ 0.164705882352941, 0.176470588235294, 0.172549019607843, 0.0 ],
					"blinkcolor" : [ 0.996078431372549, 0.317647058823529, 0.0, 1.0 ],
					"id" : "obj-27",
					"maxclass" : "button",
					"numinlets" : 1,
					"numoutlets" : 1,
					"outlettype" : [ "bang" ],
					"outlinecolor" : [ 0.996078431372549, 0.996078431372549, 0.996078431372549, 1.0 ],
					"parameter_enable" : 0,
					"patching_rect" : [ 30.0, 65.0, 45.0, 45.0 ],
					"presentation" : 1,
					"presentation_rect" : [ 240.0, 75.0, 45.0, 45.0 ]
				}

			}
, 			{
				"box" : 				{
					"angle" : 270.0,
					"bgcolor" : [ 0.827450980392157, 0.76078431372549, 0.494117647058824, 1.0 ],
					"id" : "obj-60",
					"maxclass" : "panel",
					"mode" : 0,
					"numinlets" : 1,
					"numoutlets" : 0,
					"patching_rect" : [ 360.0, 400.0, 128.0, 128.0 ],
					"presentation" : 1,
					"presentation_rect" : [ 240.0, 425.0, 45.0, 45.0 ],
					"proportion" : 0.39
				}

			}
, 			{
				"box" : 				{
					"angle" : 270.0,
					"bgcolor" : [ 0.827450980392157, 0.76078431372549, 0.494117647058824, 1.0 ],
					"id" : "obj-59",
					"maxclass" : "panel",
					"mode" : 0,
					"numinlets" : 1,
					"numoutlets" : 0,
					"patching_rect" : [ 210.0, 395.0, 128.0, 128.0 ],
					"presentation" : 1,
					"presentation_rect" : [ 240.0, 375.0, 45.0, 45.0 ],
					"proportion" : 0.39
				}

			}
, 			{
				"box" : 				{
					"angle" : 270.0,
					"bgcolor" : [ 0.827450980392157, 0.76078431372549, 0.494117647058824, 1.0 ],
					"id" : "obj-58",
					"maxclass" : "panel",
					"mode" : 0,
					"numinlets" : 1,
					"numoutlets" : 0,
					"patching_rect" : [ 75.0, 400.0, 128.0, 128.0 ],
					"presentation" : 1,
					"presentation_rect" : [ 240.0, 325.0, 45.0, 45.0 ],
					"proportion" : 0.39
				}

			}
, 			{
				"box" : 				{
					"angle" : 270.0,
					"bgcolor" : [ 0.827450980392157, 0.76078431372549, 0.494117647058824, 1.0 ],
					"id" : "obj-57",
					"maxclass" : "panel",
					"mode" : 0,
					"numinlets" : 1,
					"numoutlets" : 0,
					"patching_rect" : [ 405.0, 25.0, 128.0, 128.0 ],
					"presentation" : 1,
					"presentation_rect" : [ 240.0, 275.0, 45.0, 45.0 ],
					"proportion" : 0.39
				}

			}
, 			{
				"box" : 				{
					"angle" : 270.0,
					"bgcolor" : [ 0.827450980392157, 0.76078431372549, 0.494117647058824, 1.0 ],
					"id" : "obj-56",
					"maxclass" : "panel",
					"mode" : 0,
					"numinlets" : 1,
					"numoutlets" : 0,
					"patching_rect" : [ 285.0, 85.0, 128.0, 128.0 ],
					"presentation" : 1,
					"presentation_rect" : [ 240.0, 225.0, 45.0, 45.0 ],
					"proportion" : 0.39
				}

			}
, 			{
				"box" : 				{
					"angle" : 270.0,
					"bgcolor" : [ 0.827450980392157, 0.76078431372549, 0.494117647058824, 1.0 ],
					"id" : "obj-55",
					"maxclass" : "panel",
					"mode" : 0,
					"numinlets" : 1,
					"numoutlets" : 0,
					"patching_rect" : [ 225.0, 135.0, 128.0, 128.0 ],
					"presentation" : 1,
					"presentation_rect" : [ 240.0, 175.0, 45.0, 45.0 ],
					"proportion" : 0.39
				}

			}
, 			{
				"box" : 				{
					"angle" : 270.0,
					"bgcolor" : [ 0.827450980392157, 0.76078431372549, 0.494117647058824, 1.0 ],
					"id" : "obj-54",
					"maxclass" : "panel",
					"mode" : 0,
					"numinlets" : 1,
					"numoutlets" : 0,
					"patching_rect" : [ 150.0, 170.0, 128.0, 128.0 ],
					"presentation" : 1,
					"presentation_rect" : [ 240.0, 125.0, 45.0, 45.0 ],
					"proportion" : 0.39
				}

			}
, 			{
				"box" : 				{
					"angle" : 270.0,
					"bgcolor" : [ 0.827450980392157, 0.76078431372549, 0.494117647058824, 1.0 ],
					"id" : "obj-51",
					"maxclass" : "panel",
					"mode" : 0,
					"numinlets" : 1,
					"numoutlets" : 0,
					"patching_rect" : [ 120.0, 125.0, 128.0, 128.0 ],
					"presentation" : 1,
					"presentation_rect" : [ 240.0, 75.0, 45.0, 45.0 ],
					"proportion" : 0.39
				}

			}
 ],
		"lines" : [ 			{
				"patchline" : 				{
					"destination" : [ "obj-44", 0 ],
					"source" : [ "obj-27", 0 ]
				}

			}
, 			{
				"patchline" : 				{
					"destination" : [ "obj-44", 1 ],
					"source" : [ "obj-37", 0 ]
				}

			}
, 			{
				"patchline" : 				{
					"destination" : [ "obj-44", 3 ],
					"source" : [ "obj-38", 0 ]
				}

			}
, 			{
				"patchline" : 				{
					"destination" : [ "obj-44", 2 ],
					"source" : [ "obj-39", 0 ]
				}

			}
, 			{
				"patchline" : 				{
					"destination" : [ "obj-44", 7 ],
					"source" : [ "obj-40", 0 ]
				}

			}
, 			{
				"patchline" : 				{
					"destination" : [ "obj-44", 6 ],
					"source" : [ "obj-41", 0 ]
				}

			}
, 			{
				"patchline" : 				{
					"destination" : [ "obj-44", 5 ],
					"source" : [ "obj-42", 0 ]
				}

			}
, 			{
				"patchline" : 				{
					"destination" : [ "obj-44", 4 ],
					"source" : [ "obj-43", 0 ]
				}

			}
, 			{
				"patchline" : 				{
					"destination" : [ "obj-48", 0 ],
					"source" : [ "obj-44", 0 ]
				}

			}
, 			{
				"patchline" : 				{
					"destination" : [ "obj-49", 0 ],
					"source" : [ "obj-48", 0 ]
				}

			}
, 			{
				"patchline" : 				{
					"destination" : [ "obj-50", 0 ],
					"source" : [ "obj-49", 0 ]
				}

			}
 ],
		"dependency_cache" : [  ],
		"autosave" : 0,
		"styles" : [ 			{
				"name" : "cassiel",
				"default" : 				{
					"bgcolor" : [ 0.163647, 0.174699, 0.17409, 1.0 ],
					"bgfillcolor" : 					{
						"type" : "gradient",
						"color1" : [ 0.376471, 0.384314, 0.4, 1.0 ],
						"color2" : [ 0.290196, 0.309804, 0.301961, 1.0 ],
						"color" : [ 0.290196, 0.309804, 0.301961, 1.0 ],
						"angle" : 270.0,
						"proportion" : 0.39
					}
,
					"textcolor" : [ 0.646639, 0.821777, 0.854593, 1.0 ],
					"locked_bgcolor" : [ 0.239216, 0.254902, 0.278431, 1.0 ],
					"editing_bgcolor" : [ 0.32549, 0.345098, 0.372549, 1.0 ],
					"fontname" : [ "Courier" ]
				}
,
				"parentstyle" : "",
				"multi" : 0
			}
 ]
	}

}
